<svg xmlns="http://www.w3.org/2000/svg" xmlns:xlink="http://www.w3.org/1999/xlink" viewBox="0,0,256,256" width="64px" height="64px" fill-rule="nonzero"><g fill="none" fill-rule="nonzero" stroke="none" stroke-width="1" stroke-linecap="butt" stroke-linejoin="miter" stroke-miterlimit="10" stroke-dasharray="" stroke-dashoffset="0" font-family="none" font-weight="none" font-size="none" text-anchor="none" style="mix-blend-mode: normal"><g transform="scale(4,4)"><circle cx="32" cy="18" r="10" fill="#ffce29"></circle><path d="M32,28v0c-8.284,0 -15,6.716 -15,15v8c0,1.657 1.343,3 3,3h24c1.657,0 3,-1.343 3,-3v-8c0,-8.284 -6.716,-15 -15,-15z" fill="#89c62c"></path><ellipse cx="32" cy="61" rx="17" ry="3" fill="#000000" opacity="0.3"></ellipse><path d="M47,43v8c0,1.657 -1.343,3 -3,3h-12c0,-2.76 2.24,-5 5,-5h4c0.552,0 1,-0.448 1,-1v-5c0,-2.48 1.8,-4.54 4.17,-4.92c0.54,1.54 0.83,3.2 0.83,4.92z" fill="#000000" opacity="0.15"></path><path d="M36.92,28.83c-0.38,2.37 -2.44,4.17 -4.92,4.17c-5.51,0 -10,4.49 -10,10c0,2.76 -2.24,5 -5,5v-5c0,-8.28 6.72,-15 15,-15c1.72,0 3.38,0.29 4.92,0.83z" fill="#ffffff" opacity="0.3"></path><path d="M22.499,38c-0.286,0 -0.575,-0.081 -0.831,-0.252c-0.689,-0.46 -0.876,-1.391 -0.416,-2.08c1.397,-2.096 3.259,-3.588 5.691,-4.561c0.768,-0.307 1.642,0.066 1.949,0.836c0.308,0.769 -0.066,1.642 -0.836,1.949c-1.85,0.74 -3.259,1.865 -4.309,3.439c-0.288,0.435 -0.764,0.669 -1.248,0.669z" fill="#ffffff"></path></g></g></svg>